<svg width="21" height="21" viewBox="0 0 21 21" fill="none" xmlns="http://www.w3.org/2000/svg">
<g clip-path="url(#clip0_12_1959)">
<path d="M19.6675 10.3249L18.9278 9.58513C18.5674 9.22479 17.9811 9.22479 17.6208 9.58513L16.2501 10.9559V1.35068C16.2501 0.701886 15.7223 0.174072 15.0735 0.174072H8.7106C8.55009 0.174072 8.41997 0.304195 8.41997 0.464697C8.41997 0.6252 8.55009 0.755322 8.7106 0.755322H15.0735C15.4018 0.755322 15.6689 1.02239 15.6689 1.35068V11.5371L14.7551 12.4509H3.02946C2.86896 12.4509 2.73883 12.581 2.73883 12.7415C2.73883 12.9021 2.86896 13.0322 3.02946 13.0322H14.1738L13.6115 13.5945C13.5792 13.6351 13.5535 13.6552 13.533 13.7382L13.3526 14.5677H3.02946C2.86896 14.5677 2.73883 14.6978 2.73883 14.8583C2.73883 15.0188 2.86896 15.149 3.02946 15.149H13.2366C13.2021 15.6361 13.6757 16.1241 14.2298 15.999L15.5144 15.7197C15.5494 15.7117 15.6229 15.6837 15.6688 15.6306V18.8375C15.6688 19.1658 15.4018 19.4329 15.0735 19.4329H2.78909C2.4608 19.4329 2.19374 19.1658 2.19374 18.8375V1.35068C2.19374 1.02239 2.4608 0.755322 2.78909 0.755322H7.29227C7.45277 0.755322 7.58289 0.6252 7.58289 0.464697C7.58289 0.304195 7.45277 0.174072 7.29227 0.174072H2.78909C2.1403 0.174072 1.61249 0.701886 1.61249 1.35068V18.8375C1.61249 19.4863 2.1403 20.0141 2.78909 20.0141H15.0735C15.7223 20.0141 16.2501 19.4863 16.2501 18.8375V15.0493L19.6675 11.6318C20.0278 11.2715 20.0278 10.6852 19.6675 10.3249ZM15.4527 15.0247L14.228 13.8L17.1417 10.8862L18.3664 12.111L15.4527 15.0247ZM13.8862 15.3664C13.8584 15.3387 13.7965 15.2616 13.8216 15.1464L13.9879 14.3819L14.8708 15.2648L14.1063 15.4311C13.9909 15.4561 13.914 15.3942 13.8862 15.3664ZM19.2565 11.2208L18.7774 11.6999L17.5527 10.4753L18.0319 9.99611C18.0966 9.93136 18.1828 9.89567 18.2743 9.89567C18.3659 9.89567 18.452 9.93132 18.5168 9.99611L19.2565 10.7359C19.3902 10.8695 19.3902 11.0871 19.2565 11.2208Z" fill="#0E0E0E"/>
<path d="M6.01249 4.8813C6.173 4.8813 6.30312 4.75118 6.30312 4.59067C6.30312 4.43017 6.173 4.30005 6.01249 4.30005H4.27262C4.11212 4.30005 3.98199 4.43017 3.98199 4.59067C3.98199 4.75118 4.11212 4.8813 4.27262 4.8813H4.84844V6.41956C4.68895 6.42076 4.56003 6.5503 4.56003 6.71007C4.56003 6.87057 4.69015 7.00069 4.85065 7.00069H5.43454C5.59504 7.00069 5.72516 6.87057 5.72516 6.71007C5.72516 6.54956 5.59504 6.41944 5.43454 6.41944H5.42969V4.8813H6.01249Z" fill="#0E0E0E"/>
<path d="M7.43699 6.41943C7.27648 6.41943 7.14636 6.54956 7.14636 6.71006C7.14636 6.87056 7.27648 7.00068 7.43699 7.00068H9.92075C10.0812 7.00068 10.2114 6.87056 10.2114 6.71006C10.2114 6.54956 10.0812 6.41943 9.92075 6.41943H7.43699Z" fill="#0E0E0E"/>
<path d="M3.02939 10.3341C2.86889 10.3341 2.73877 10.4642 2.73877 10.6247C2.73877 10.7852 2.86889 10.9154 3.02939 10.9154H7.43697C7.59748 10.9154 7.7276 10.7852 7.7276 10.6247C7.7276 10.4642 7.59748 10.3341 7.43697 10.3341H3.02939Z" fill="#0E0E0E"/>
<path d="M14.833 17.2658C14.9935 17.2658 15.1236 17.1357 15.1236 16.9752C15.1236 16.8147 14.9935 16.6846 14.833 16.6846H6.51682C6.35632 16.6846 6.2262 16.8147 6.2262 16.9752C6.2262 17.1357 6.35632 17.2658 6.51682 17.2658H14.833Z" fill="#0E0E0E"/>
<path d="M3.02939 17.2658H5.15778C5.31828 17.2658 5.4484 17.1357 5.4484 16.9752C5.4484 16.8147 5.31828 16.6846 5.15778 16.6846H3.02939C2.86889 16.6846 2.73877 16.8147 2.73877 16.9752C2.73877 17.1357 2.86889 17.2658 3.02939 17.2658Z" fill="#0E0E0E"/>
<path d="M14.4748 7.59996H13.0529C12.8924 7.59996 12.7623 7.73009 12.7623 7.89059C12.7623 8.05109 12.8924 8.18121 13.0529 8.18121H14.4748C14.8326 8.18121 15.1237 7.89013 15.1237 7.53231V3.69745C15.1237 3.33967 14.8326 3.04858 14.4748 3.04858H3.38764C3.02986 3.04858 2.73877 3.33967 2.73877 3.69745V7.53231C2.73877 7.89009 3.02986 8.18121 3.38764 8.18121H11.5982C11.7587 8.18121 11.8888 8.05109 11.8888 7.89059C11.8888 7.73009 11.7587 7.59996 11.5982 7.59996H3.38764C3.35036 7.59996 3.32002 7.56962 3.32002 7.53231V3.69745C3.32002 3.66018 3.35036 3.62983 3.38764 3.62983H14.4748C14.5121 3.62983 14.5424 3.66018 14.5424 3.69745V7.53231C14.5424 7.56962 14.5121 7.59996 14.4748 7.59996Z" fill="#0E0E0E"/>
</g>
<defs>
<clipPath id="clip0_12_1959">
<rect width="19.84" height="19.84" fill="white" transform="translate(0.855103 0.17395)"/>
</clipPath>
</defs>
</svg>
