<svg width="50" height="50" viewBox="0 0 50 50" fill="none" xmlns="http://www.w3.org/2000/svg">
<rect width="50" height="50" rx="10" fill="url(#paint0_linear_12_1798)"/>
<g clip-path="url(#clip0_12_1798)">
<path d="M30.6358 19.2107C30.8477 19.0026 31.2008 18.6068 31.4393 18.29C32.1592 17.3425 32.6776 16.2783 32.98 15.1271L33.9631 11.3835C34.0635 11.0003 33.9563 10.6042 33.676 10.324C33.3958 10.0437 32.9997 9.93644 32.6163 10.037L28.8729 11.02C27.721 11.3226 26.6567 11.8409 25.7096 12.5604C25.3858 12.8065 25.076 13.077 24.7888 13.3641L19.723 18.4299C18.6965 19.4564 18.3919 20.9863 18.9469 22.3274L19.379 23.373C19.4403 23.5646 19.7649 23.6923 19.9564 23.4883L28.7987 14.6462C28.9517 14.4931 29.2007 14.4932 29.3537 14.6462C29.5068 14.7993 29.5068 15.0482 29.3537 15.2012L14.7109 29.844C14.5579 29.9971 14.3089 29.9971 14.1559 29.844C14.0029 29.691 14.0029 29.442 14.1559 29.289L18.7919 24.6531C18.9292 24.5158 18.9292 24.2932 18.7919 24.1559C18.6546 24.0187 18.432 24.0187 18.2947 24.1559L13.6588 28.7918C13.3187 29.132 13.2503 29.6416 13.4518 30.0509L10.103 33.3998C9.96568 33.5371 9.96568 33.7597 10.103 33.897C10.1716 33.9656 10.2616 33.9999 10.3515 33.9999C10.4415 33.9999 10.5315 33.9656 10.6001 33.897L13.949 30.5481C14.1013 30.6231 14.2672 30.6615 14.4334 30.6615C14.7139 30.6615 14.9945 30.5548 15.2081 30.3412L20.84 24.7092L21.6719 25.053C22.1167 25.237 22.582 25.3264 23.043 25.3264C23.9724 25.3264 24.8837 24.9626 25.57 24.2765L30.6358 19.2107ZM26.901 21.951L24.3451 21.2042L28.0223 17.527L30.5529 18.2666C30.4549 18.3755 30.4475 18.3967 30.1386 18.7135L26.901 21.951ZM25.4974 13.6575C25.5449 13.615 25.6232 13.542 25.7333 13.4467L26.4729 15.9776L22.7957 19.6547L22.0489 17.0984L25.286 13.8613C25.3551 13.7923 25.4257 13.7244 25.4974 13.6575ZM20.2202 18.9271L21.482 17.6653L22.2288 20.2216L19.8291 22.6213L19.5967 22.0587C19.1507 20.9812 19.3955 19.7519 20.2202 18.9271ZM29.8509 15.6984C30.278 15.2713 30.278 14.5762 29.8509 14.149C29.4237 13.722 28.7287 13.7219 28.3015 14.149L27.0398 15.4107L26.3288 12.9777C27.1525 12.3882 28.0672 11.9585 29.0515 11.7L32.7947 10.717C32.9949 10.6644 33.1301 10.7723 33.1788 10.8211C33.2276 10.8699 33.3354 11.0049 33.2829 11.205L32.3 14.9483C32.0415 15.9322 31.6117 16.8469 31.0218 17.6711L28.5892 16.9601L29.8509 15.6984ZM21.9406 24.4032L21.3785 24.1709L23.7782 21.7711L26.3342 22.5179L25.0729 23.7793C24.2479 24.6042 23.0184 24.8491 21.9406 24.4032Z" fill="white"/>
<path d="M32.9391 28.5952H31.1593V27.7657C31.6467 27.8261 32.1603 27.4339 32.1588 26.8998V25.207C32.1588 24.7295 31.7704 24.3411 31.2929 24.3411H26.9937C26.5163 24.3411 26.1278 24.7295 26.1278 25.207V26.8998C26.1227 27.4037 26.6005 27.8215 27.1274 27.7657V28.9468C27.1274 29.141 27.2848 29.2983 27.479 29.2983H32.9391C33.1363 29.2983 33.2968 29.4588 33.2968 29.656V32.9366C33.2968 33.1338 33.1363 33.2942 32.9391 33.2942H25.3476C25.1504 33.2942 24.99 33.1338 24.99 32.9366V29.656C24.99 29.4588 25.1504 29.2983 25.3476 29.2983H25.8357C26.0299 29.2983 26.1873 29.141 26.1873 28.9468C26.1873 28.7526 26.0299 28.5952 25.8357 28.5952H25.3476C24.7627 28.5952 24.2869 29.0711 24.2869 29.656V32.9366C24.2869 33.5215 24.7627 33.9973 25.3476 33.9973H32.9391C33.524 33.9973 33.9999 33.5215 33.9999 32.9366V29.656C33.9999 29.0711 33.524 28.5952 32.9391 28.5952ZM26.8309 26.8998V25.207C26.8309 25.1172 26.904 25.0442 26.9937 25.0442H31.2929C31.3827 25.0442 31.4557 25.1172 31.4557 25.207V26.8998C31.4557 26.9895 31.3827 27.0626 31.2929 27.0626H26.9937C26.904 27.0626 26.8309 26.9895 26.8309 26.8998ZM27.8305 28.5952V27.7659H30.4562V28.5952H27.8305Z" fill="white"/>
<path d="M29.112 31.8992L29.7454 31.2658C29.8827 31.1285 29.8827 30.9058 29.7454 30.7686C29.6081 30.6313 29.3855 30.6313 29.2482 30.7686L28.6149 31.4021C28.4776 31.5394 28.4776 31.762 28.6149 31.8992C28.6835 31.9678 28.7735 32.0022 28.8635 32.0022C28.9534 32.0022 29.0434 31.9678 29.112 31.8992Z" fill="white"/>
</g>
<defs>
<linearGradient id="paint0_linear_12_1798" x1="-9.40367" y1="6.19266" x2="50" y2="50" gradientUnits="userSpaceOnUse">
<stop stop-color="#5CC1AD"/>
<stop offset="1" stop-color="#116655"/>
</linearGradient>
<clipPath id="clip0_12_1798">
<rect width="24" height="24" fill="white" transform="translate(10 10)"/>
</clipPath>
</defs>
</svg>
