<svg width="24" height="24" viewBox="0 0 24 24" fill="none" xmlns="http://www.w3.org/2000/svg">
<g clip-path="url(#clip0_12_1846)">
<path d="M20.6358 9.2107C20.8477 9.00262 21.2008 8.60682 21.4393 8.29004C22.1592 7.34246 22.6776 6.27831 22.98 5.12707L23.9631 1.38351C24.0635 1.00027 23.9563 0.604174 23.676 0.323957C23.3958 0.0437402 22.9997 -0.063556 22.6163 0.0369902L18.8729 1.01995C17.721 1.32258 16.6567 1.84087 15.7096 2.5604C15.3858 2.80654 15.076 3.077 14.7888 3.36411L9.72303 8.42986C8.69652 9.45637 8.39188 10.9863 8.94687 12.3274L9.37901 13.373C9.44028 13.5646 9.76488 13.6923 9.95637 13.4883L18.7987 4.64623C18.9517 4.49314 19.2007 4.49318 19.3537 4.64618C19.5068 4.79927 19.5068 5.04823 19.3537 5.20123L4.71094 19.844C4.5579 19.9971 4.30895 19.9971 4.15595 19.844C4.00295 19.691 4.00295 19.442 4.15595 19.289L8.79186 14.6531C8.92916 14.5158 8.92916 14.2932 8.79186 14.1559C8.65456 14.0187 8.43195 14.0187 8.29471 14.1559L3.65879 18.7918C3.31867 19.132 3.25033 19.6416 3.45184 20.0509L0.102972 23.3998C-0.034324 23.5371 -0.034324 23.7597 0.102972 23.897C0.171597 23.9656 0.261596 23.9999 0.351549 23.9999C0.441501 23.9999 0.531501 23.9656 0.600125 23.897L3.949 20.5481C4.10129 20.6231 4.26718 20.6615 4.4334 20.6615C4.71394 20.6615 4.99449 20.5548 5.20805 20.3412L10.84 14.7092L11.6719 15.053C12.1167 15.237 12.582 15.3264 13.043 15.3264C13.9724 15.3264 14.8837 14.9626 15.57 14.2765L20.6358 9.2107ZM16.901 11.951L14.3451 11.2042L18.0223 7.52701L20.5529 8.2666C20.4549 8.37554 20.4475 8.39672 20.1386 8.7135L16.901 11.951ZM15.4974 3.65755C15.5449 3.61498 15.6232 3.54205 15.7333 3.44666L16.4729 5.97756L12.7957 9.65475L12.0489 7.09843L15.286 3.86131C15.3551 3.79226 15.4257 3.72439 15.4974 3.65755ZM10.2202 8.92711L11.482 7.66534L12.2288 10.2216L9.82915 12.6213L9.59665 12.0587C9.15068 10.9812 9.39546 9.75187 10.2202 8.92711ZM19.8509 5.69843C20.278 5.2713 20.278 4.57624 19.8509 4.14898C19.4237 3.72195 18.7287 3.72191 18.3015 4.14898L17.0398 5.41071L16.3288 2.97772C17.1525 2.38823 18.0672 1.95853 19.0515 1.69996L22.7947 0.717002C22.9949 0.664408 23.1301 0.772314 23.1788 0.821064C23.2276 0.86986 23.3354 1.00491 23.2829 1.20497L22.3 4.94834C22.0415 5.93219 21.6117 6.8469 21.0218 7.67105L18.5892 6.96006L19.8509 5.69843ZM11.9406 14.4032L11.3785 14.1709L13.7782 11.7711L16.3342 12.5179L15.0729 13.7793C14.2479 14.6042 13.0184 14.8491 11.9406 14.4032Z" fill="white"/>
<path d="M22.9391 18.5952H21.1593V17.7657C21.6467 17.8261 22.1603 17.4339 22.1588 16.8998V15.207C22.1588 14.7295 21.7704 14.3411 21.2929 14.3411H16.9937C16.5163 14.3411 16.1278 14.7295 16.1278 15.207V16.8998C16.1227 17.4037 16.6005 17.8215 17.1274 17.7657V18.9468C17.1274 19.141 17.2848 19.2983 17.479 19.2983H22.9391C23.1363 19.2983 23.2968 19.4588 23.2968 19.656V22.9366C23.2968 23.1338 23.1363 23.2942 22.9391 23.2942H15.3476C15.1504 23.2942 14.99 23.1338 14.99 22.9366V19.656C14.99 19.4588 15.1504 19.2983 15.3476 19.2983H15.8357C16.0299 19.2983 16.1873 19.141 16.1873 18.9468C16.1873 18.7526 16.0299 18.5952 15.8357 18.5952H15.3476C14.7627 18.5952 14.2869 19.0711 14.2869 19.656V22.9366C14.2869 23.5215 14.7627 23.9973 15.3476 23.9973H22.9391C23.524 23.9973 23.9999 23.5215 23.9999 22.9366V19.656C23.9999 19.0711 23.524 18.5952 22.9391 18.5952ZM16.8309 16.8998V15.207C16.8309 15.1172 16.904 15.0442 16.9937 15.0442H21.2929C21.3827 15.0442 21.4557 15.1172 21.4557 15.207V16.8998C21.4557 16.9895 21.3827 17.0626 21.2929 17.0626H16.9937C16.904 17.0626 16.8309 16.9895 16.8309 16.8998ZM17.8305 18.5952V17.7659H20.4562V18.5952H17.8305Z" fill="white"/>
<path d="M19.112 21.8992L19.7454 21.2658C19.8827 21.1285 19.8827 20.9058 19.7454 20.7686C19.6081 20.6313 19.3855 20.6313 19.2482 20.7686L18.6149 21.4021C18.4776 21.5394 18.4776 21.762 18.6149 21.8992C18.6835 21.9678 18.7735 22.0022 18.8635 22.0022C18.9534 22.0022 19.0434 21.9678 19.112 21.8992Z" fill="white"/>
</g>
<defs>
<clipPath id="clip0_12_1846">
<rect width="24" height="24" fill="white"/>
</clipPath>
</defs>
</svg>
